<svg xmlns="http://www.w3.org/2000/svg" width="64" height="64" viewBox="0 0 200 200"><defs><linearGradient id="b" x1="0%" y1="0%" y2="100%"><stop offset="0%" stop-color="#81d4fa"/><stop offset="100%" stop-color="#29b6f6"/></linearGradient><linearGradient id="c" x1="0%" y1="0%" y2="0%"><stop offset="0%" stop-color="#b3e5fc"/><stop offset="100%" stop-color="#4fc3f7"/></linearGradient><linearGradient id="d" x1="0%" y1="0%" y2="100%"><stop offset="0%" stop-color="#fff" stop-opacity=".4"/><stop offset="100%" stop-color="#fff" stop-opacity="0"/></linearGradient><filter id="a" width="140%" height="140%" x="-20%" y="-20%"><feGaussianBlur in="SourceAlpha" stdDeviation="2"/><feOffset dx="2" dy="2" result="offsetblur"/><feComponentTransfer><feFuncA slope=".3" type="linear"/></feComponentTransfer><feMerge><feMergeNode/><feMergeNode in="SourceGraphic"/></feMerge></filter></defs><path fill="#0288D1" d="M48 48c0-5 5-10 10-10h100c5 0 10 5 10 10v120c0 5-5 10-10 10H58c-5 0-10-5-10-10z" opacity=".2"/><g filter="url(#a)" transform="rotate(-2 100 100)"><path fill="url(#b)" d="M40 40c0-5 5-10 10-10h100c5 0 10 5 10 10v120c0 5-5 10-10 10H50c-5 0-10-5-10-10z"><animate attributeName="d" dur="4s" repeatCount="indefinite" values="M40 40 C 40 35, 45 30, 50 30 L 150 30 C 155 30, 160 35, 160 40 L 160 160 C 160 165, 155 170, 150 170 L 50 170 C 45 170, 40 165, 40 160 Z; M38 40 C 38 35, 43 28, 48 28 L 148 28 C 153 28, 158 35, 158 40 L 158 160 C 158 165, 153 172, 148 172 L 48 172 C 43 172, 38 165, 38 160 Z; M40 40 C 40 35, 45 30, 50 30 L 150 30 C 155 30, 160 35, 160 40 L 160 160 C 160 165, 155 170, 150 170 L 50 170 C 45 170, 40 165, 40 160 Z"/></path><path stroke="url(#c)" d="M45 40h110" opacity=".5"/><path stroke="url(#c)" d="M45 100h110" opacity=".3"/><path fill="url(#d)" d="M40 40c0-5 5-10 10-10h100c5 0 10 5 10 10v40C100 60 60 70 40 80z" opacity=".4"><animate attributeName="opacity" dur="3s" repeatCount="indefinite" values="0.4;0.2;0.4"/></path><g stroke="#FFF" stroke-linecap="round"><path stroke-width="3" d="M60 70h80" opacity=".8"><animate attributeName="x2" calcMode="spline" dur="4s" keySplines="0.4 0 0.2 1; 0.4 0 0.2 1" repeatCount="indefinite" values="140;135;140"/></path><path stroke-width="2" d="M60 90h60" opacity=".6"><animate attributeName="x2" calcMode="spline" dur="3.5s" keySplines="0.4 0 0.2 1; 0.4 0 0.2 1" repeatCount="indefinite" values="120;115;120"/></path><path stroke-width="2" d="M60 110h40" opacity=".4"><animate attributeName="x2" calcMode="spline" dur="3s" keySplines="0.4 0 0.2 1; 0.4 0 0.2 1" repeatCount="indefinite" values="100;95;100"/></path></g></g><g filter="url(#softGlow)" transform="matrix(.5 0 0 .5 40 130)"><path fill="none" stroke="#E1F5FE" stroke-dasharray="4 4" stroke-width="2" d="M0 0q80-40 160 0t80 0" opacity=".4"><animate attributeName="d" dur="3s" repeatCount="indefinite" values="M0 0 Q 80 -40, 160 0 T 240 0; M0 0 Q 80 -50, 160 -10 T 240 0; M0 0 Q 80 -40, 160 0 T 240 0"/></path><g><animateMotion calcMode="spline" dur="4s" keySplines="0.4 0 0.2 1; 0.4 0 0.2 1" path="M0 0 Q 80 -40, 160 0 T 240 0" repeatCount="indefinite"/><animateTransform attributeName="transform" calcMode="spline" dur="4s" keySplines="0.4 0 0.2 1; 0.4 0 0.2 1" repeatCount="indefinite" type="rotate" values="0;-15;0;15;0"/><path fill="#FFF" stroke="#B3E5FC" stroke-width="1.5" d="M0 0l25-12v24z"/></g><g><animateMotion calcMode="spline" dur="4s" keySplines="0.4 0 0.2 1; 0.4 0 0.2 1" path="M0 0 Q 80 -40, 160 0 T 240 0" repeatCount="indefinite"/><circle r="1" fill="#E3F2FD" opacity=".6"><animate attributeName="opacity" dur="1s" repeatCount="indefinite" values="0.6;0;0.6"/></circle></g></g><g fill="#E1F5FE"><circle cx="160" cy="40" r="3" opacity=".6"><animate attributeName="cy" dur="2s" repeatCount="indefinite" values="40;35;40"/><animate attributeName="opacity" dur="2s" repeatCount="indefinite" values="0.6;0.2;0.6"/></circle><circle cx="150" cy="50" r="2" opacity=".4"><animate attributeName="cy" dur="2.5s" repeatCount="indefinite" values="50;45;50"/><animate attributeName="opacity" dur="2.5s" repeatCount="indefinite" values="0.4;0.1;0.4"/></circle></g></svg>